<?xml version="1.0" encoding="UTF-8"?>
<svg id="Ebene_2" data-name="Ebene 2" xmlns="http://www.w3.org/2000/svg" viewBox="0 0 162.1 86.99">
  <defs>
    <style>
      .cls-1 {
        font-family: HankenGrotesk-SemiBold, 'Hanken Grotesk';
        font-size: 31.42px;
        font-variation-settings: 'wght' 600;
        font-weight: 600;
      }

      .cls-2 {
        letter-spacing: -.01em;
      }

      .cls-3 {
        stroke-width: 0px;
      }
    </style>
  </defs>
  <g id="Calque_1" data-name="Calque 1">
    <g>
      <path class="cls-3" d="m133.31,37.39h-22.06c-2.76,0-5-2.24-5-5v-11.42c-.11-10.25-4.58-20.97-27.13-20.97h-25.62c-21.72,0-25.94,9.47-25.94,16.58v.58c0,7.43,5.45,13.45,23.26,13.97l8.2.19c11.02.32,12.49,2.05,12.49,4.8,0,2.56-1.41,4.45-13.96,4.45h-.9c-7.71,0-12.4-.21-18.49-5.19-1.74-1.42-3.42-2.55-4.88-2.8-5.14-.87-8.87,4.86-6.01,9.22.27.42.59.82.96,1.22,4.18,4.51,14.85,8.34,26.56,8.34h4.42c23.96,0,27.93-8.07,27.93-15.95v-.9c0-9.48-7.24-13.84-25.17-14.16l-8.01-.13c-9.74-.19-11.01-2.05-11.02-4.1-.01-3.39,2.6-5.1,18.46-5.24h15.26c6.49.21,14.41,1.13,14.66,10.26v22.96c0,2.84,2.3,5.14,5.14,5.14h36.98c3.32,0,6.01-2.74,5.92-6.08s-2.82-5.77-6.06-5.77Z"/>
      <text class="cls-1" transform="translate(0 78.92)"><tspan x="0" y="0">Sono</tspan><tspan class="cls-2" x="71.61" y="0">r</tspan><tspan x="84.47" y="0">a Lab</tspan></text>
    </g>
  </g>
</svg>