<?xml version="1.0" encoding="UTF-8"?>
<svg id="Ebene_2" data-name="Ebene 2" xmlns="http://www.w3.org/2000/svg" viewBox="0 0 73.04 32.26">
  <defs>
    <style>
      .cls-1 {
        fill: #ff5a00;
        stroke-width: 0px;
      }
    </style>
  </defs>
  <g id="Calque_1" data-name="Calque 1">
    <path class="cls-1" d="m69.12,23.48h-14.25c-1.78,0-3.23-1.41-3.23-3.14v-7.17c-.07-6.44-2.96-13.17-17.52-13.17h-16.54C3.56,0,.83,5.95.83,10.41v.36c0,4.67,3.52,8.45,15.02,8.77l5.3.12c7.11.2,8.07,1.29,8.07,3.02,0,1.61-.91,2.79-9.02,2.79h-.58c-4.98,0-8.01-.13-11.94-3.26-1.12-.89-2.21-1.6-3.15-1.76-3.32-.55-5.73,3.05-3.88,5.79.18.26.38.52.62.77,2.7,2.83,9.59,5.24,17.15,5.24h2.85c15.47,0,18.04-5.07,18.04-10.02v-.56c0-5.95-4.67-8.69-16.26-8.89l-5.17-.08c-6.29-.12-7.11-1.29-7.12-2.58,0-2.13,1.68-3.21,11.92-3.29h9.85c4.19.13,9.31.71,9.47,6.44v14.42c0,1.78,1.49,3.23,3.32,3.23h23.88c2.15,0,3.88-1.72,3.83-3.82s-1.82-3.62-3.91-3.62Z"/>
  </g>
</svg>