<?xml version="1.0" encoding="UTF-8"?>
<svg id="Ebene_2" data-name="Ebene 2" xmlns="http://www.w3.org/2000/svg" viewBox="0 0 164.7 120.34">
  <defs>
    <style>
      .cls-1 {
        stroke-width: 0px;
      }
    </style>
  </defs>
  <g id="Calque_1" data-name="Calque 1">
    <g>
      <path class="cls-1" d="m155.88,99.99h-32.13c-4.02,0-7.28-3.26-7.28-7.28l.02-16.64c-.18-14.93-6.68-30.53-39.52-30.53h-37.31C8.03,45.54,1.88,59.33,1.88,69.68v.84c0,10.82,7.93,19.59,33.87,20.34l11.94.28c16.04.47,18.19,2.99,18.19,7,0,3.73-2.05,6.48-20.34,6.48h-1.31c-11.23,0-18.06-.31-26.93-7.55-2.53-2.06-4.98-3.71-7.11-4.07-7.49-1.27-12.92,7.08-8.75,13.43.4.61.86,1.2,1.4,1.77,6.09,6.56,21.63,12.15,38.68,12.15h6.44c34.89,0,40.67-11.76,40.67-23.23v-1.31c0-13.81-10.54-20.15-36.66-20.62l-11.66-.19c-14.18-.28-16.03-2.99-16.05-5.97-.02-4.94,3.78-7.43,26.89-7.64h22.22c9.45.31,20.99,1.65,21.35,14.94v33.43c0,4.14,3.35,7.49,7.49,7.49h53.85c4.84,0,8.75-3.99,8.63-8.86s-4.11-8.4-8.82-8.4Z"/>
      <circle class="cls-1" cx="59.17" cy="17.77" r="17.77"/>
    </g>
  </g>
</svg>